<?xml version="1.0" encoding="UTF-8" standalone="no"?>
<svg
   height="40"
   width="113"
   version="1.1"
   viewBox="0 0 1446.3961 511.998"
   xml:space="preserve"
   id="svg32"
   sodipodi:docname="logo-docuseal.svg"
   inkscape:version="1.2.2 (b0a8486541, 2022-12-01)"
   xmlns:inkscape="http://www.inkscape.org/namespaces/inkscape"
   xmlns:sodipodi="http://sodipodi.sourceforge.net/DTD/sodipodi-0.dtd"
   xmlns="http://www.w3.org/2000/svg"
   xmlns:svg="http://www.w3.org/2000/svg"><defs
   id="defs36" /><sodipodi:namedview
   id="namedview34"
   pagecolor="#ffffff"
   bordercolor="#666666"
   borderopacity="1.0"
   inkscape:showpageshadow="2"
   inkscape:pageopacity="0.0"
   inkscape:pagecheckerboard="0"
   inkscape:deskcolor="#d1d1d1"
   showgrid="false"
   inkscape:zoom="3.4544072"
   inkscape:cx="115.79411"
   inkscape:cy="14.329521"
   inkscape:current-layer="svg32" />
  <path
   style="fill:#aa968c"
   d="m 503.999,247.999 c 0,128.13 -111.033,240 -248,240 C 119.032,487.999 8,376.129 8,247.999 c 0,-128.13 111.033,-224 248,-224 136.967,0 247.999,95.87 247.999,224 z"
   id="path2" />
  <path
   style="fill:#aa968c"
   d="M 255.999,23.999 C 119.033,23.999 8,119.868 8,247.999 c 0,24.631 4.138,48.647 11.74,71.397 25.518,34.29 66.232,56.602 112.26,56.602 53.893,0 100.6,-30.495 124,-75.13 23.4,44.636 70.107,75.13 124,75.13 46.028,0 86.743,-22.312 112.26,-56.602 7.602,-22.75 11.74,-46.767 11.74,-71.397 -10e-4,-128.131 -111.034,-224 -248.001,-224 z"
   id="path4" />
  <circle
   style="fill:#c8af9b"
   cx="256"
   cy="351.99899"
   r="136"
   id="circle6" />
  <g
   id="g14">
    <circle
   style="fill:#464655"
   cx="132"
   cy="203.99899"
   r="28"
   id="circle8" />
    <circle
   style="fill:#464655"
   cx="380"
   cy="203.99899"
   r="28"
   id="circle10" />
    <path
   style="fill:#464655"
   d="m 269.949,284.516 c -7.672,10.741 -20.227,10.741 -27.899,0 l -12.101,-16.941 c -7.672,-10.741 -3.15,-19.53 10.05,-19.53 h 32 c 13.2,0 17.723,8.788 10.05,19.53 z"
   id="path12" />
  </g>
  <path
   style="fill:#aa968c"
   d="m 350.964,399.998 c -34.336,0 -51.943,-48 -95.082,-48 -43.14,0 -60.747,48 -95.081,48 -15.406,0 -29.078,-5.851 -40.18,-25.2 10.974,64.232 67.272,113.2 135.26,113.2 67.987,0 124.287,-48.968 135.259,-113.2 -11.1,19.35 -24.772,25.2 -40.176,25.2 z"
   id="path16" />
  <g
   id="g30">
    <path
   style="fill:#8c7873"
   d="m 32,423.998 c -3.172,0 -6.18,-1.906 -7.43,-5.031 -1.641,-4.105 0.359,-8.758 4.461,-10.402 l 160.008,-64 c 4.062,-1.617 8.758,0.352 10.398,4.457 1.64,4.105 -0.359,8.758 -4.461,10.402 l -160.008,64 C 34,423.811 32.992,423.998 32,423.998 Z"
   id="path18" />
    <path
   style="fill:#8c7873"
   d="m 15.992,375.995 c -3.547,0 -6.781,-2.375 -7.727,-5.965 -1.125,-4.273 1.422,-8.648 5.695,-9.773 l 152,-40 c 4.289,-1.121 8.648,1.426 9.773,5.703 1.125,4.273 -1.422,8.648 -5.695,9.773 l -152,40 c -0.687,0.18 -1.366,0.262 -2.046,0.262 z"
   id="path20" />
    <path
   style="fill:#8c7873"
   d="m 7.992,335.995 c -3.812,0 -7.187,-2.73 -7.867,-6.609 -0.773,-4.352 2.133,-8.5 6.484,-9.27 l 136,-24 c 4.328,-0.77 8.508,2.141 9.266,6.488 0.773,4.352 -2.133,8.5 -6.484,9.27 l -136,24 c -0.469,0.082 -0.938,0.121 -1.399,0.121 z"
   id="path22" />
    <path
   style="fill:#8c7873"
   d="m 480,423.998 c 3.172,0 6.18,-1.906 7.43,-5.031 1.641,-4.105 -0.359,-8.758 -4.461,-10.402 l -160.008,-64 c -4.063,-1.617 -8.758,0.352 -10.398,4.457 -1.64,4.105 0.359,8.758 4.461,10.402 l 160.008,64 c 0.968,0.387 1.975,0.574 2.968,0.574 z"
   id="path24" />
    <path
   style="fill:#8c7873"
   d="m 496.007,375.995 c 3.547,0 6.781,-2.375 7.727,-5.965 1.125,-4.273 -1.422,-8.648 -5.695,-9.773 l -152,-40 c -4.289,-1.121 -8.648,1.426 -9.773,5.703 -1.125,4.273 1.422,8.648 5.695,9.773 l 152,40 c 0.687,0.18 1.367,0.262 2.046,0.262 z"
   id="path26" />
    <path
   style="fill:#8c7873"
   d="m 504.007,335.995 c 3.813,0 7.188,-2.73 7.867,-6.609 0.773,-4.352 -2.133,-8.5 -6.484,-9.27 l -136,-24 c -4.328,-0.77 -8.508,2.141 -9.266,6.488 -0.773,4.352 2.133,8.5 6.484,9.27 l 136,24 c 0.47,0.082 0.938,0.121 1.399,0.121 z"
   id="path28" />
  </g>
<text
   xml:space="preserve"
   style="font-style:normal;font-variant:normal;font-weight:bold;font-stretch:normal;font-size:170.666px;line-height:1.25;font-family:sans-serif;-inkscape-font-specification:'sans-serif, Bold';font-variant-ligatures:normal;font-variant-caps:normal;font-variant-numeric:normal;font-variant-east-asian:normal;letter-spacing:0px;word-spacing:0px;fill:#000000;fill-opacity:1;stroke:none;stroke-width:12.8"
   x="589.01288"
   y="311.45477"
   id="text319"><tspan
     sodipodi:role="line"
     style="font-style:normal;font-variant:normal;font-weight:bold;font-stretch:normal;font-size:170.666px;font-family:sans-serif;-inkscape-font-specification:'sans-serif, Bold';font-variant-ligatures:normal;font-variant-caps:normal;font-variant-numeric:normal;font-variant-east-asian:normal;stroke-width:12.8"
     x="589.01288"
     y="311.45477"
     id="tspan321">DocuSeal</tspan></text></svg>
